PathFileType	4	(X/Y/Z)	Patient4_TMGait_0pt4_01_left_02.trc.trc
DataRate	CameraRate	NumFrames	NumMarkers	Units	OrigDataRate	OrigDataStartFrame	OrigNumFrames
74.468085106383	74.468085106383	5	33	mm	74.468085106383	1	       141
Frame#	Time	Sacral			L.Shoulder			Chest			R.Shoulder			Neck			R.ASIS			L.ASIS			R.Thigh.Superior			R.Thigh.Lateral			R.Thigh.Inferior			R.Patella			L.Thigh.Superior			L.Thigh.Lateral			L.Thigh.Inferior			L.Patella			L.Shank.Superior			L.Shank.Lateral			L.Shank.Inferior			R.Shank.Superior			R.Shank.Lateral			R.Shank.Inferior			R.Heel			R.Midfoot.Superior			R.Midfoot.Lateral			R.Toe			L.Heel			L.Midfoot.Lateral			L.Midfoot.Superior			L.Toe			L.Elbow			L.Wrist			R.Elbow			R.Wrist			
		X1	Y1	Z1	X2	Y2	Z2	X3	Y3	Z3	X4	Y4	Z4	X5	Y5	Z5	X6	Y6	Z6	X7	Y7	Z7	X8	Y8	Z8	X9	Y9	Z9	X10	Y10	Z10	X11	Y11	Z11	X12	Y12	Z12	X13	Y13	Z13	X14	Y14	Z14	X15	Y15	Z15	X16	Y16	Z16	X17	Y17	Z17	X18	Y18	Z18	X19	Y19	Z19	X20	Y20	Z20	X21	Y21	Z21	X22	Y22	Z22	X23	Y23	Z23	X24	Y24	Z24	X25	Y25	Z25	X26	Y26	Z26	X27	Y27	Z27	X28	Y28	Z28	X29	Y29	Z29	X30	Y30	Z30	X31	Y31	Z31	X32	Y32	Z32	X33	Y33	Z33	

1	1.390000000000	849.335469525625	998.801601129473	534.343543982613	1010.712839171677	1423.748814126314	324.432181911763	1124.238782336765	1363.810369719244	480.968031163120	1053.844909981429	1443.234712177035	657.787103004974	1011.096733599051	1493.115315683927	478.030412911770	1089.662665593535	943.311888306599	634.095208437589	1052.221194105553	959.820820868140	362.313352262801	1133.188144976306	743.283758764884	600.872810182939	1057.431630684938	632.133104158425	664.741841456603	1130.491531497927	582.109213349002	579.477760012743	1130.800426185784	493.210130340968	584.210889399180	1134.798539075945	772.020027156853	385.129428978135	1081.962851396467	646.877586158894	308.319991328899	1187.843314874833	582.505563964091	361.352643316839	1198.491591067559	494.109575265317	354.048982722342	1132.761867315616	426.591662521482	349.120089087594	988.417078418346	381.132246339633	310.889699083894	985.022544793418	248.692085030811	361.742322110111	1101.645056439653	403.783076258719	591.850320973680	1031.681375191591	300.840460522112	656.042977435255	1067.650924959498	205.905318869272	590.331378670446	928.424874820479	43.122624002697	564.371374873931	1100.581206994813	97.301643631125	597.441351932062	1012.828200983095	37.117808251854	638.424559312337	1220.992818340308	44.598320335030	624.361891246965	799.947637021017	180.973269880851	415.354539084741	849.168619952677	138.858569742374	327.281031836793	956.666272587861	144.566402147413	338.830701501089	1029.943151256660	33.312801480926	296.305079508708	1006.972676954122	1062.074392307274	234.094658139417	1138.855812583721	835.843048816961	221.880747112018	1059.220906051127	1102.457787144595	801.663421238981	1235.099742286216	913.422713652023	769.861073362849	
2	1.403428571429	848.520815432165	1000.238714229284	537.086604945655	1009.901936102748	1423.922445073751	325.293539396001	1124.995419940516	1363.571680263043	480.465078811180	1057.376791925122	1443.804255574640	657.919162740726	1012.556026396728	1493.513061110077	478.551189765690	1089.540533795797	942.875852418922	633.678662352132	1048.938715211990	960.881174215170	362.420368920671	1131.177005371088	742.627462691129	599.900454958184	1054.979367990808	632.189587785107	664.502920330524	1126.666148478103	581.604497646932	578.624420481260	1126.322190523045	492.823342806605	583.401775142587	1132.774877538467	774.791362501407	384.649157042374	1080.345397955191	648.864924429845	308.636770952841	1187.378686642110	585.846900194707	360.371462252967	1199.428975103152	498.527825137489	353.265608072218	1137.082006095691	429.563396043158	348.121671966177	996.010851318701	376.509067129937	309.977085188942	1000.715244978360	244.270244309549	359.643798782704	1096.953936577055	403.496863342818	591.431204913720	1026.826902543215	300.802356473709	655.870183578116	1062.344168781046	205.743918534154	590.143073655411	922.755376481938	43.025565462281	564.504328420197	1094.850260756237	97.270686241936	597.393763824552	1007.119068324876	37.138376994474	638.535215818926	1215.248385360780	44.623856566154	624.284927377507	821.512367301006	165.297410546916	413.303198777581	872.389245410156	127.030322923638	324.771687400173	978.691394959880	139.498418861680	335.917015054715	1058.220380305892	34.060314769891	292.467421529827	1000.505708274546	1061.822382993840	237.208346258894	1118.132719309237	830.082030948863	224.198385743993	1069.392419992221	1104.196032014329	802.689080054397	1253.354295882790	926.894490307777	764.937088703654	
3	1.416857142857	847.709471336467	1001.676910660286	539.766700190047	1009.117513848143	1424.102489000032	326.131560189120	1125.767484166331	1363.322952889812	479.932929181884	1060.914761879781	1444.353899344008	658.017631729044	1014.029821649195	1493.902321100356	479.050312001415	1089.409043974428	942.438008154328	633.228370071953	1045.702206929496	961.943527849143	362.476414463009	1129.093703582854	741.972914721459	598.868253926554	1052.514454818206	632.245956472455	664.261991418684	1122.805886272364	581.102257733683	577.763414687641	1121.816692384596	492.443645089913	582.613986086848	1130.677131017544	777.424398327345	384.162099026121	1078.567005813827	650.744046387551	308.963947403468	1186.608617996291	588.955300868598	359.587193502367	1200.067908761595	502.815578929673	352.638495806593	1141.186491905279	432.475718326471	347.215618333425	1003.681714510625	371.761206751963	308.985549068946	1016.556020658097	239.892947938432	357.531310095260	1092.244786179121	403.224246983334	591.028440237234	1021.972031384400	300.761837343142	655.707028387803	1057.050036198836	205.584824477775	589.961289521297	917.110038547884	42.932981422664	564.633042951102	1089.148673486799	97.239604873586	597.346734735635	1001.437954085402	37.156188142276	638.641147696183	1209.536374118000	44.644417443155	624.215137432356	843.523655560252	149.591758365396	411.066235551549	896.068478759893	115.326876191007	322.118498590386	1001.004237699714	134.607657722516	332.982358842036	1086.776910992064	35.227005054712	288.651648284874	993.985947779483	1061.625784800335	240.188119375655	1097.626979166588	824.609773219634	226.513368574458	1079.480504470374	1105.901455895023	803.610855600077	1271.310021876240	940.383942007705	759.930470592411	
4	1.430285714286	846.904748307042	1003.107816749216	542.304352165806	1008.392466095984	1424.292362708480	326.910327235874	1126.564202773950	1363.054568996031	479.342574055283	1064.441249115979	1444.859415513299	658.044709003101	1015.525953853159	1494.272911774077	479.495676899333	1089.254159609803	941.996058513531	632.698131162015	1042.566682623598	962.993834552391	362.440516466120	1126.898061970009	741.320103234874	597.747385640057	1050.026872297372	632.300447997906	664.014391244478	1118.896028311363	580.603921020030	576.894595721608	1117.274338792206	492.078013008071	581.866500655682	1128.441047416435	779.781213930282	383.677896853560	1076.526350042029	652.428078405647	309.277894054683	1185.306976841648	591.635763150828	359.135411101794	1200.168503840494	506.846666193619	352.278846741492	1144.879024814371	435.278061805646	346.464929071865	1011.437737672744	366.871862893051	307.866274976093	1032.531549238827	235.687001935912	355.419590882178	1087.514539003973	402.972767775263	590.650434563791	1017.127201378591	300.718645978078	655.560487082678	1051.789351086573	205.431249026805	589.791296763871	911.521288848061	42.848240958073	564.753960028817	1083.514098278832	97.210151710421	597.303041901346	995.819183358286	37.168978065822	638.737978218211	1203.894165260587	44.657926193770	624.158934597434	866.151027414456	134.055150172560	408.537070877062	920.388922416877	104.002722285144	319.272773201417	1023.652457094527	130.122755847455	330.066221539940	1115.591719664645	37.164851887095	284.994418849922	987.371585933099	1061.550674927115	242.915440982516	1077.604310966816	819.709854939572	228.803520639560	1089.387257534083	1107.533619930238	804.301537084528	1288.625151923562	953.823566801742	754.772941540506	
5	1.443714285714	846.114160629723	1004.523403539609	544.633514601034	1007.755745152041	1424.493995567540	327.595920006141	1127.393992223035	1362.756357039198	478.666090896824	1067.944788130173	1445.298514260447	657.965570782244	1017.054314880340	1494.615591861302	479.856389219131	1089.061854888811	941.547990129238	632.054105402205	1039.577140803342	964.015617803512	362.281567618500	1124.562577344000	740.667267484873	596.523961442337	1047.502262893450	632.351144519738	663.757859792767	1114.919699709845	580.108298635831	576.021019617713	1112.679370726059	491.730501368339	581.174585848327	1126.006859293746	781.748488815904	383.213862739298	1074.151568188403	653.858089336043	309.534961692656	1183.295579458793	593.741863726538	359.111953814560	1199.550312558165	510.533309395833	352.265861101049	1148.010178212970	437.947175726460	345.920288106479	1019.308562862810	361.863942107872	306.568556690421	1048.624844568063	231.803742295056	353.341020326908	1082.753858623008	402.746537837219	590.303891128340	1012.288246067817	300.672993376669	655.437642898269	1046.564153332587	205.285892031025	589.637031636655	905.997110469282	42.773851214718	564.863514203123	1077.958426855373	97.183334796768	597.264289363676	990.273781640041	37.175328952729	638.823223590292	1198.333569763840	44.664235509658	624.119781165376	889.510312290633	118.939162814484	405.639037469702	945.496904274982	93.325957620502	316.229342617226	1046.667268919082	126.276736554666	327.242235787642	1144.630858360061	40.185857074959	281.704764491149	980.599222769383	1061.657756979623	245.304881020168	1058.250854150384	815.600156136679	231.050124938750	1099.065008209062	1109.058164649243	804.645780529294	1305.054177363068	967.163583781806	749.394172389092	
